# File created by Blade
# Date/Time:  Wed Jan 21 18:40:08 2015
# Frame Rate: 120.000 fps
#------------------------------------------------------
:FULLY-SPECIFIED
:DEGREES
3732
root -3.692406 21.143127 -11.033772 70.577098 -21.400412 16.088725
RightUpLeg -156.575511 -29.438098 21.670722
RightLeg 92.866206 -0.000000 -0.000000
RightFoot -20.277948 24.768137 22.294835
RightToeBase 25.232699 -0.000000 -0.000000
LeftUpLeg -85.154333 42.710708 -20.063530
LeftLeg 6.447864 -0.000000 -0.000000
LeftFoot 26.905972 6.440863 -13.692174
LeftToeBase 17.962292 -0.000000 -0.000000
Spine -34.174201 6.121220 -3.370840
RightShoulder -11.176349 21.587253 -41.698397
RightArm 2.035450 -12.471933 64.453657
RightForeArm -7.396726 -0.000000 87.501400
RightHand 1.551853 -0.000000 -3.977611
RightHandThumb1 -24.326973 -0.000000 -32.862282
LeftShoulder -7.640934 3.244971 22.663744
LeftArm 18.989285 24.007574 -86.230290
LeftForeArm 31.082460 -0.000000 67.986640
LeftHand -21.248366 -0.000000 2.627499
LeftHandThumb1 -26.253704 0.000000 33.147579
Head -21.520791 11.916552 -10.371728
3733
root -3.740334 21.352691 -11.100263 70.845076 -20.765944 16.321697
RightUpLeg -156.012432 -29.729826 21.539252
RightLeg 92.121727 -0.000000 -0.000000
RightFoot -20.633434 24.097455 22.458354
RightToeBase 25.214771 -0.000000 -0.000000
LeftUpLeg -86.213987 41.822288 -20.427563
LeftLeg 6.341973 -0.000000 -0.000000
LeftFoot 27.781866 6.021238 -12.860401
LeftToeBase 20.070022 -0.000000 -0.000000
Spine -34.242620 6.033739 -3.188511
RightShoulder -11.194601 21.699343 -41.615749
RightArm 1.738574 -11.963507 64.824099
RightForeArm -8.009787 0.000000 87.247515
RightHand 1.567799 -0.000000 -3.961270
RightHandThumb1 -24.326973 -0.000000 -32.862282
LeftShoulder -7.524129 3.130785 22.691156
LeftArm 19.009749 23.921756 -86.418915
LeftForeArm 31.256395 -0.000000 68.471888
LeftHand -21.289487 0.000000 2.406718
LeftHandThumb1 -26.253704 0.000000 33.147579
Head -21.769401 11.441968 -10.228442
3734
root -3.784522 21.562325 -11.161814 71.135809 -20.114184 16.459162
RightUpLeg -155.417901 -29.931678 21.496979
RightLeg 91.352956 -0.000000 -0.000000
RightFoot -20.935475 23.437952 22.583479
RightToeBase 25.091126 -0.000000 -0.000000
LeftUpLeg -87.227200 40.972072 -20.669086
LeftLeg 6.350646 -0.000000 -0.000000
LeftFoot 28.322135 5.725950 -12.108508
LeftToeBase 21.809901 -0.000000 -0.000000
Spine -34.314358 5.975539 -2.940680
RightShoulder -11.219616 21.766019 -41.515534
RightArm 1.473268 -11.476407 65.253972
RightForeArm -8.622596 -0.000000 87.075623
RightHand 1.391792 0.000000 -3.790436
RightHandThumb1 -24.326973 -0.000000 -32.862282
LeftShoulder -7.399520 3.005038 22.693021
LeftArm 19.044036 23.815941 -86.589071
LeftForeArm 31.280984 0.000000 68.873382
LeftHand -21.186836 -0.000000 2.494864
LeftHandThumb1 -26.253704 0.000000 33.147579
Head -22.043934 10.954048 -10.090233
3735
root -3.827593 21.772915 -11.226965 71.468208 -19.507037 16.483899
RightUpLeg -154.730381 -30.026894 21.375749
RightLeg 90.521805 -0.000000 -0.000000
RightFoot -21.181204 22.746513 22.809755
RightToeBase 25.004158 -0.000000 -0.000000
LeftUpLeg -88.141664 40.189236 -20.744207
LeftLeg 6.452875 -0.000000 -0.000000
LeftFoot 28.467888 5.585561 -11.493485
LeftToeBase 23.562661 -0.000000 -0.000000
Spine -34.376278 5.941280 -2.695853
RightShoulder -11.261234 21.849194 -41.379840
RightArm 1.220049 -11.116194 65.702708
RightForeArm -9.309737 0.000000 86.917730
RightHand 1.244576 0.000000 -3.714773
RightHandThumb1 -24.326973 -0.000000 -32.862282
LeftShoulder -7.301161 2.911088 22.722620
LeftArm 19.194260 23.797840 -86.653244
LeftForeArm 31.290587 -0.000000 69.251998
LeftHand -21.251755 -0.000000 2.443434
LeftHandThumb1 -26.253704 0.000000 33.147579
Head -22.402092 10.541543 -9.911064
